<?xml version="1.0" encoding="utf-8"?>
<svg version="1.1" id="Layer_1" xmlns="http://www.w3.org/2000/svg" xmlns:xlink="http://www.w3.org/1999/xlink" x="0px" y="0px"
	 viewBox="0 0 1920 1440" enable-background="new 0 0 1920 1440" xml:space="preserve">
<g>
	<path fill="#088004" stroke="#088004" d="M331.74,452.75c17.73-4.66,36.33-3.67,54.27-0.82c11.8,2.33,23.08,6.63,34.33,10.8
		c12.44,4.15,25.1,7.86,38.09,9.83c9.32,1.52,18.51,4.02,27.14,7.89c9.94,4.49,20.06,8.74,29.31,14.58
		c13.86,8.75,27.23,18.25,41.02,27.1c15.72,10.26,28.45,24.17,42.38,36.58c12.75,11.61,24.95,23.96,39.22,33.76
		c12.05,8.15,24.59,15.54,37.2,22.79c15.88,9.46,31.61,19.15,47.6,28.41c14.54,8.96,29.46,17.44,42.68,28.35
		c11.13,9.25,22.18,18.63,34.03,26.96c10.62,7.82,21.69,15.29,34.13,19.88c20.7,7.96,37.39,22.96,54.72,36.29
		c12.09,9.97,25.06,18.95,39.11,25.93c2.78,1.34,5.73,2.28,8.7,3.13c-9.85,12.97-19.85,25.84-29.57,38.91
		c-11.25,15.72-22.89,31.14-34.2,46.81c-10.57,14.87-22.44,28.79-34.82,42.16c-14.95,14.06-29.8,28.25-45.39,41.6
		c-9.94,8.09-19.87,16.2-30.05,23.98c-5.88,4.18-11.44,9.03-18.28,11.62c-11.46-11.12-23.82-21.26-35.5-32.14
		c-12.72-11.32-24.93-23.3-38.86-33.17c-15.61-11.62-32.46-22-51.11-27.93c-10.88-3.83-22.23-5.98-33.45-8.55
		c-8.42-2.03-16.61-4.89-25.04-6.89c-9.8-2.34-19.31-5.78-29.19-7.83c-36.82-7.52-72.37-20.08-109.12-27.86
		c-11.38-1.98-22.71-4.24-34.15-5.83c-15.54-2.04-31.04-4.67-46.14-8.94c-8.49-2.46-17.05-4.67-25.44-7.44
		c-12.86-4.22-24.95-10.37-37.31-15.81c-15.96-7.88-31.47-16.63-47.34-24.67c-16.8-9.55-34.18-18.08-50.51-28.44
		c-12.33-8.12-24.36-16.77-37.62-23.36c-18.19-10.38-38.29-16.71-58.44-22.04c6.01-4.59,9.22-11.65,13.76-17.52
		c8.21-12.32,17.01-24.22,25.83-36.1c10.34-14.82,21.95-28.68,33.32-42.7c10.83-12.56,20.67-25.93,31.73-38.29
		c7.87-9.13,16.42-17.65,24.09-26.96c10.61-12.02,21.39-23.9,32.3-35.66c6.62-7.17,13.11-14.48,20.11-21.29
		c6.98-6.63,14.5-12.67,22.31-18.29C300.68,462.09,315.92,455.89,331.74,452.75z"/>
	<path fill="#088004" stroke="#088004" d="M1877.26,607.79c-18.1-3.89-36.76-5-54.49-10.56c-7.83-2.41-15.82-4.39-23.34-7.69
		c-9.38-4.1-18.72-8.34-27.62-13.4c-22.49-12.64-45.71-24.19-66.74-39.24c-8.01-5.65-16.66-10.31-25.39-14.74
		c-18.34-7.63-37.68-13.45-57.59-14.85c-11.68-1.05-23.41-0.29-35.09-1.1c-11.34-0.57-22.43-3.16-33.44-5.71
		c-11.25-3.04-22.9-5.6-34.62-4.5c-6.04,0.54-12.06,1.31-18.09,1.87c-6.13,0.95-12.27,2.03-18.2,3.88l-0.71,0.21
		c-18.07,6.12-36.98,9.86-54.3,18.05c-15.13,5.2-28.12,14.72-41.66,22.97c-10.14,6.36-20.15,13-29.45,20.56
		c-5.61,4.47-11.55,8.55-16.79,13.47c18.87,2.54,36.9,9,54.02,17.15c15.19,6.34,28.75,15.75,42.63,24.46
		c16.07,10.93,33.45,20.01,48.31,32.67c12.3,9.98,23.4,21.31,35.62,31.4c18.98,16.96,38.21,34.03,60.57,46.49
		c17.68,10.4,35.67,20.26,53.46,30.47c8.29,4.14,15.71,9.91,24.3,13.48c14.99-13.55,30.58-26.41,45.83-39.66
		c14.32-11.85,28.77-23.67,44.71-33.3c9.38-5.66,18.46-11.93,28.49-16.46c8.9-4.07,18.07-7.52,27.28-10.82
		c13.31-4.43,26.53-9.47,40.47-11.58c14.1-2.22,28.26-4.5,42.56-4.74c10.75,0.31,21.46,1.79,32.01,3.85v-41.15
		C1905.85,615.1,1891.71,610.79,1877.26,607.79z"/>
	<path fill="#096106" stroke="#096106" d="M1189.61,553.62c20.15-4.65,41.1-3.51,61.44-0.77c21.15,3.26,40.66,12.56,61.26,17.95
		c9.07,2.36,18.09,5.07,27.43,6.21c18.87,2.54,36.9,9,54.02,17.15c15.19,6.34,28.75,15.75,42.63,24.46
		c16.07,10.93,33.45,20.01,48.31,32.67c12.3,9.98,23.4,21.31,35.62,31.4c18.98,16.96,38.21,34.03,60.57,46.49
		c17.68,10.4,35.67,20.26,53.46,30.47c8.29,4.14,15.71,9.91,24.3,13.48c-12.43,10.04-24.71,20.25-36.67,30.83
		c-13.98,11.77-28.83,22.46-42.86,34.16c-7.47,5.93-15.21,11.49-22.91,17.09c-14.11,9.48-28.71,18.23-43.66,26.3
		c-8.95,5.08-18.17,9.69-26.87,15.2c-9.93,6.03-19.4,12.82-29.67,18.3c-13.22,7.79-26.89,14.78-40.86,21.13
		c-8.79,3.75-17.96,6.51-26.71,10.36c-16.69,6.74-33.7,12.86-49.64,21.29c-9.38,5.49-18.79,11.02-27.54,17.48
		c-27.02,21.25-51.32,46.11-80.66,64.33c-16.7,10.13-34.74,17.73-51.77,27.24c-14.65,8.2-29.92,15.21-45.46,21.54
		c-17.89,8.18-36.3,15.32-55.24,20.68c-11.19,2.66-22.54,5.47-34.13,5.13c-24.29-0.11-48.71-0.73-72.76-4.38
		c-17.85-4.19-35.14-10.67-51.84-18.2c-17.33-7.25-33.57-16.79-49.7-26.34c-16.49-9.27-31.71-20.59-48.24-29.78
		c-12.82-8.71-26.3-16.33-39.49-24.44c-14.42-8.54-26.58-20.23-38.61-31.76c6.84-2.59,12.4-7.44,18.28-11.62
		c10.18-7.78,20.11-15.89,30.05-23.98c15.59-13.35,30.44-27.54,45.39-41.6c12.38-13.37,24.25-27.29,34.82-42.16
		c11.31-15.67,22.95-31.09,34.2-46.81c9.72-13.07,19.72-25.94,29.57-38.91c18.74-23.65,38.86-46.16,58.34-69.19
		c11.18-13.43,23.39-25.94,35.52-38.49c9.45-10.22,18.56-20.76,28.22-30.79c13.08-13.58,26.02-27.3,39.34-40.66
		c12.89-13.04,27.53-24.31,43.16-33.89C1155.29,561.96,1172.41,557,1189.61,553.62z"/>
	<path fill="#084705" stroke="#084705" d="M1887.99,656.57c-14.3,0.24-28.46,2.52-42.56,4.74c-13.94,2.11-27.16,7.15-40.47,11.58
		c-9.21,3.3-18.38,6.75-27.28,10.82c-10.03,4.53-19.11,10.8-28.49,16.46c-15.94,9.63-30.39,21.45-44.71,33.3
		c-15.25,13.25-30.84,26.11-45.83,39.66c-12.43,10.04-24.71,20.25-36.67,30.83c-13.98,11.77-28.83,22.46-42.86,34.16
		c-7.47,5.93-15.21,11.49-22.91,17.09c-14.11,9.48-28.71,18.23-43.66,26.3c-8.95,5.08-18.17,9.69-26.87,15.2
		c-9.93,6.03-19.4,12.82-29.67,18.3c-13.22,7.79-26.89,14.78-40.86,21.13c-8.79,3.75-17.96,6.51-26.71,10.36
		c-16.69,6.74-33.7,12.86-49.64,21.29c-9.38,5.49-18.79,11.02-27.54,17.48c-27.02,21.25-51.32,46.11-80.66,64.33
		c-16.7,10.13-34.74,17.73-51.77,27.24c-14.65,8.2-29.92,15.21-45.46,21.54c-17.89,8.18-36.3,15.32-55.24,20.68
		c-11.19,2.66-22.54,5.47-34.13,5.13c-24.29-0.11-48.71-0.73-72.76-4.38c-17.85-4.19-35.14-10.67-51.84-18.2
		c-17.33-7.25-33.57-16.79-49.7-26.34c-16.49-9.27-31.71-20.59-48.24-29.78c-12.82-8.71-26.3-16.33-39.49-24.44
		c-14.42-8.54-26.58-20.23-38.61-31.76c-11.46-11.12-23.82-21.26-35.5-32.14c-12.72-11.32-24.93-23.3-38.86-33.17
		c-15.61-11.62-32.46-22-51.11-27.93c-10.88-3.83-22.23-5.98-33.45-8.55c-8.42-2.03-16.61-4.89-25.04-6.89
		c-9.8-2.34-19.31-5.78-29.19-7.83c-36.82-7.52-72.37-20.08-109.12-27.86c-11.38-1.98-22.71-4.24-34.15-5.83
		c-15.54-2.04-31.04-4.67-46.14-8.94c-8.49-2.46-17.05-4.67-25.44-7.44c-12.86-4.22-24.95-10.37-37.31-15.81
		c-15.96-7.88-31.47-16.63-47.34-24.67c-16.8-9.55-34.18-18.08-50.51-28.44c-12.33-8.12-24.36-16.77-37.62-23.36
		c-18.19-10.38-38.29-16.71-58.44-22.04c-9.63-2.98-19.68-4.09-29.61-5.62c-13.04-1.94-26.26-1.94-39.41-2.28
		c-5.04-0.1-10.08-0.14-15.12-0.23v562.22V1440h1920v-200.1V660.42C1909.45,658.36,1898.74,656.88,1887.99,656.57z"/>
</g>
</svg>
